<svg data-v-423bf9ae="" xmlns="http://www.w3.org/2000/svg" viewBox="0 0 410 90" class="iconLeft"><!----><!----><!----><g data-v-423bf9ae="" id="a75c3c5b-c7d4-4722-b545-091d4fe44ead" fill="black" transform="matrix(4.487658976332971,0,0,4.487658976332971,79.31681882234878,-5.0598353920311325)"><path d="M7.04 4.54C7.04 4.54 5.73 4.68 5.45 4.68L2.31 4.68C2.03 4.68 0.69 4.61 0.69 4.61L0.62 5.36L1.69 5.53C1.72 5.71 1.82 6.36 1.82 6.59L1.82 12.63C1.82 12.87 1.72 13.51 1.69 13.69L0.59 13.92L0.66 14.62C0.66 14.62 2.03 14.55 2.31 14.55C3.43 14.55 4.49 14.62 4.49 14.62L4.59 13.79L3.19 13.69C3.16 13.50 3.09 12.80 3.09 12.21L3.09 9.97C3.33 9.94 3.57 9.93 3.70 9.93L4.44 9.93C4.72 9.93 5.56 10.01 5.56 10.01L5.68 10.95L6.36 10.86C6.36 10.86 6.31 10.04 6.31 9.34C6.31 9.06 6.33 8.16 6.33 8.16L5.68 8.09L5.56 9.02C5.56 9.02 5.00 9.14 4.72 9.14L3.70 9.14C3.58 9.14 3.33 9.13 3.09 9.11L3.09 7.01C3.09 6.47 3.16 5.75 3.19 5.46L5.03 5.46C5.42 5.46 5.85 5.50 6.16 5.53C6.30 5.71 6.43 5.91 6.44 6.01C6.50 6.22 6.57 6.54 6.59 6.76L7.41 6.69L7.31 4.79ZM11.48 13.79L10.39 13.69C10.39 13.69 10.29 12.91 10.29 12.21L10.29 10.02C10.29 9.32 10.39 7.88 10.39 7.88L10.12 7.63L9.31 7.63C9.03 7.63 8.02 7.57 8.02 7.57L7.95 8.32L9.02 8.54C9.02 8.54 9.16 9.32 9.16 9.60L9.16 12.63C9.16 12.91 9.02 13.69 9.02 13.69L7.95 13.92L8.02 14.62C8.02 14.62 9.30 14.55 9.58 14.55C10.70 14.55 11.38 14.62 11.38 14.62ZM9.73 4.47C9.20 4.47 8.90 4.84 8.90 5.38C8.90 5.91 9.20 6.27 9.73 6.27C10.26 6.27 10.56 5.91 10.56 5.38C10.56 4.80 10.25 4.47 9.73 4.47ZM12.17 8.32L13.23 8.54C13.23 8.54 13.37 9.32 13.37 9.60L13.37 12.70C13.34 13.02 13.23 13.69 13.23 13.69L12.17 13.92L12.24 14.62C12.24 14.62 13.51 14.55 13.79 14.55C14.91 14.55 15.60 14.62 15.60 14.62L15.69 13.79L14.60 13.69C14.60 13.69 14.50 12.91 14.50 12.21L14.50 10.71C14.52 9.34 15.19 8.36 16.30 8.36C17.47 8.36 17.74 9.51 17.74 10.68L17.74 12.63C17.74 12.98 17.67 13.38 17.60 13.69L16.66 13.92L16.73 14.62C16.73 14.62 17.88 14.55 18.16 14.55C19.28 14.55 19.96 14.62 19.96 14.62L20.06 13.79L18.97 13.69C18.97 13.69 18.87 12.91 18.87 12.21L18.87 10.68C18.87 8.75 18.44 7.50 16.51 7.50C15.44 7.50 14.71 8.13 14.38 8.78L14.29 7.88L14.03 7.63L13.52 7.63C13.24 7.63 12.24 7.57 12.24 7.57ZM24.23 13.79L23.14 13.69C23.14 13.69 23.04 12.91 23.04 12.21L23.04 10.02C23.04 9.32 23.14 7.88 23.14 7.88L22.88 7.63L22.06 7.63C21.78 7.63 20.78 7.57 20.78 7.57L20.71 8.32L21.77 8.54C21.77 8.54 21.91 9.32 21.91 9.60L21.91 12.63C21.91 12.91 21.77 13.69 21.77 13.69L20.71 13.92L20.78 14.62C20.78 14.62 22.05 14.55 22.33 14.55C23.45 14.55 24.14 14.62 24.14 14.62ZM22.48 4.47C21.95 4.47 21.66 4.84 21.66 5.38C21.66 5.91 21.95 6.27 22.48 6.27C23.02 6.27 23.31 5.91 23.31 5.38C23.31 4.80 23.00 4.47 22.48 4.47ZM28.81 13.38C28.81 13.38 28.21 13.79 27.71 13.79C27.19 13.79 26.95 13.40 26.95 12.70L26.95 8.39L28.84 8.39L28.91 7.63L26.95 7.63L26.95 6.19L26.46 6.13C26.46 6.13 25.93 7.25 25.82 7.39C25.49 7.59 25.16 7.64 24.70 7.80L24.74 8.39L25.82 8.39L25.82 12.36C25.82 13.90 26.22 14.69 27.55 14.69C28.25 14.69 28.76 14.31 29.20 13.96ZM33.14 13.09L31.75 9.66C31.64 9.39 31.50 8.89 31.40 8.47L32.41 8.37L32.37 7.56C32.37 7.56 31.57 7.63 30.45 7.63C30.17 7.63 29.30 7.59 29.30 7.59L29.23 8.32L29.92 8.48C30.18 8.95 30.49 9.53 30.63 9.88L32.63 14.55L32.19 15.79C32.10 16.00 31.89 16.41 31.65 16.74C31.36 16.80 30.90 16.88 30.72 16.88L30.16 16.87L30.04 17.68L32.30 17.84L35.18 10.08C35.29 9.80 35.63 9.06 35.91 8.48L36.65 8.37L36.61 7.56C36.61 7.56 36.06 7.63 35.00 7.63C34.72 7.63 33.78 7.59 33.78 7.59L33.71 8.32L34.73 8.48C34.64 8.93 34.45 9.58 34.36 9.84ZM49.92 5.29L49.87 4.61C49.87 4.61 48.36 4.68 47.87 4.68L46.61 4.68L46.54 5.43L47.60 5.57C47.60 5.57 47.54 6.09 47.45 6.45L45.72 12.47L43.36 4.96L42.62 4.96L40.40 12.47L38.79 7.08C38.58 6.37 38.42 5.57 38.42 5.57L39.52 5.29L39.47 4.61C39.47 4.61 37.76 4.68 37.41 4.68L35.88 4.68L35.81 5.43L36.74 5.57C36.74 5.57 37.10 6.17 37.30 6.76L39.86 14.55L40.71 14.55L42.84 7.46L45.18 14.55L46.03 14.55L48.33 6.92C48.50 6.37 48.97 5.53 48.97 5.53ZM53.91 14.55C55.03 14.55 55.72 14.62 55.72 14.62L55.82 13.79L54.85 13.69C54.85 13.69 54.71 12.91 54.71 12.21L54.71 10.47C54.71 8.33 54.07 7.50 52.40 7.50C51.56 7.50 50.71 7.62 49.87 7.84L50.02 9.74L50.83 9.70L50.83 9.13L50.93 8.54C51.28 8.37 51.80 8.26 52.26 8.26C53.14 8.26 53.58 8.89 53.58 10.19L53.58 10.65L51.34 11.03C50.08 11.24 49.46 11.89 49.46 12.89C49.46 13.99 50.25 14.69 51.49 14.69C52.40 14.69 53.35 14.15 53.72 13.44ZM53.58 11.37L53.58 12.21C53.44 13.12 52.65 13.79 51.72 13.79C51.06 13.79 50.69 13.38 50.69 12.68C50.69 12.19 51.02 11.84 51.58 11.75ZM60.45 13.38C60.45 13.38 59.85 13.79 59.35 13.79C58.83 13.79 58.59 13.40 58.59 12.70L58.59 8.39L60.48 8.39L60.55 7.63L58.59 7.63L58.59 6.19L58.10 6.13C58.10 6.13 57.57 7.25 57.46 7.39C57.13 7.59 56.80 7.64 56.34 7.80L56.38 8.39L57.46 8.39L57.46 12.36C57.46 13.90 57.86 14.69 59.19 14.69C59.89 14.69 60.40 14.31 60.84 13.96ZM64.48 7.50C62.43 7.50 61.43 9.02 61.43 11.12C61.43 13.23 62.54 14.69 64.65 14.69C66.23 14.69 67.13 13.85 67.13 13.85L66.74 13.20C66.74 13.20 65.84 13.78 64.65 13.78C63.39 13.78 62.79 12.49 62.75 11.23L66.93 11.23L67.17 10.77C67.17 8.81 66.44 7.50 64.48 7.50ZM64.43 8.23C65.42 8.23 65.88 9.02 65.88 10.01C65.88 10.08 65.87 10.29 65.87 10.29L62.76 10.53C62.86 9.37 63.28 8.23 64.43 8.23ZM70.20 7.88L69.93 7.63L69.43 7.63C69.15 7.63 68.14 7.57 68.14 7.57L68.07 8.32L69.13 8.54C69.13 8.54 69.27 9.32 69.27 9.60L69.27 12.63C69.27 12.91 69.13 13.69 69.13 13.69L68.07 13.92L68.14 14.62C68.14 14.62 69.41 14.55 69.69 14.55C70.81 14.55 71.78 14.62 71.78 14.62L71.88 13.79L70.50 13.69C70.50 13.69 70.41 12.91 70.41 12.21L70.41 10.57C70.46 9.25 70.99 8.48 72.28 8.47L72.34 8.47C72.44 8.76 72.53 9.09 72.53 9.17L72.53 9.91L73.35 9.95L73.49 7.64C73.49 7.64 73.05 7.50 72.53 7.50C71.53 7.50 70.83 7.91 70.28 8.81Z"></path></g><!----><g data-v-423bf9ae="" id="627df86d-b363-453b-abc4-610229cc6a31" transform="matrix(1.115241677861803,0,0,1.115241677861803,-24.54831586135611,-10.083271727939739)" stroke="none" fill="black"><path d="M77.5 59c-.8-4.7-2.6-9-4.4-12.9-5.4-11.9-11.9-22.7-18.3-32.7L54 12c-1.1-1.7-2.4-2.6-3.9-2.6-2.2 0-3.6 2-4 2.6v.1l-1.4 2.2c-2.5 4-5.1 8.2-7.6 12.4-3.9 6.6-8.8 15.4-12.4 24.8-1.2 3.1-2.3 6.2-2.4 9.6-.4 8.8 2.8 16.2 9.4 22 5.1 4.5 11.6 7 18.3 7 9.8 0 18.7-5 23.8-13.5C77.2 71 78.5 65 77.5 59zm-6.9 15.7C66.2 82.1 58.5 86.4 50 86.4c-5.8 0-11.5-2.1-15.9-6-5.7-5-8.5-11.5-8.2-19.1.1-2.8 1-5.5 2.2-8.4 3.5-9.2 8.3-17.8 12.1-24.3 2.4-4.1 5-8.3 7.6-12.3l1.3-2.1c0-.1.1-.1.1-.2.2-.3.6-.8.8-.9 0 0 .3.1.8.9l.8 1.3c6.2 9.8 12.7 20.5 18 32.2 1.7 3.8 3.4 7.8 4.1 12 1 5.2-.1 10.3-3.1 15.2zm-18.8 2.2c0 1-.8 1.8-1.8 1.8-9.1 0-16.4-7.4-16.4-16.4 0-1 .8-1.8 1.8-1.8s1.8.8 1.8 1.8C37.3 69.3 43 75 50 75c1 0 1.8.9 1.8 1.9z"></path></g><!----></svg>